<svg xmlns="http://www.w3.org/2000/svg" width="27.813" height="28" viewBox="0 0 27.813 28">
  <defs>
    <style>
      .cls-1 {
        fill: #757575;
        fill-rule: evenodd;
      }
    </style>
  </defs>
  <path id="navicon_search" class="cls-1" d="M70.505,375.8L62.1,367.35a10.776,10.776,0,0,0-.831-14.232,10.632,10.632,0,0,0-15.1,0,10.775,10.775,0,0,0,0,15.181,10.615,10.615,0,0,0,14.153.835l8.4,8.452a1.248,1.248,0,0,0,1.774,0A1.266,1.266,0,0,0,70.505,375.8Zm-22.558-9.287a8.242,8.242,0,0,1,0-11.612,8.133,8.133,0,0,1,11.547,0,8.252,8.252,0,0,1,0,11.612A8.13,8.13,0,0,1,47.947,366.515Z" transform="translate(-43.063 -349.969)"/>
</svg>
