<svg xmlns="http://www.w3.org/2000/svg" viewBox="0 0 693.31 231.03"><defs><style>.cls-1{fill:#fff;}.cls-2{fill:#ffe900;}</style></defs><title>アセット 1</title><g id="レイヤー_2" data-name="レイヤー 2"><g id="レイヤー_1-2" data-name="レイヤー 1"><path d="M690.79,19.87a20.42,20.42,0,0,0-12.54-9.81L643.31.69A20.33,20.33,0,0,0,638,0h0a20.22,20.22,0,0,0-19.82,15.83l-2.9,12.78A38.76,38.76,0,0,0,583.06,4c-1.29-.13-2.6-.19-3.89-.19a38.61,38.61,0,0,0-35.53,23.4,20,20,0,0,0-15.88-7.85H487.48a20,20,0,0,0-20,20V58L437.24,46V39.31a20,20,0,0,0-20-20H375.76a20,20,0,0,0-20,20V50.82c-.45,0-.9-.07-1.36-.07h-104a19.93,19.93,0,0,0-5.84.87,20,20,0,0,0-19.72-16.71H148.76a19.85,19.85,0,0,0-10.42,3,20,20,0,0,0-19.62-16.16H25.28a20,20,0,0,0-20,20V76.35a19.88,19.88,0,0,0,2.09,8.9A20,20,0,0,0,0,100.75v36.68a20,20,0,0,0,18.22,19.91L337.44,231l295.13-59.87.56-.11,1.23-.25v0a39.68,39.68,0,0,0,28.44-49.83,20.31,20.31,0,0,0,6.14-9.4L692.41,35.7A20.42,20.42,0,0,0,690.79,19.87Zm-128,10h0l.06-.07ZM579,21.77h0ZM597,53.11h0l.15-.26ZM637.81,18l.24,0h-.24Z"/><path class="cls-1" d="M18,135.9V99.22a2,2,0,0,1,2-2H124a2,2,0,0,1,2,2V136a2,2,0,0,1-2,2L20,137.9A2,2,0,0,1,18,135.9Zm5.28-61.08V40.18a2,2,0,0,1,2-2h93.44a2,2,0,0,1,2,2V74.82a2,2,0,0,1-2,2H25.28A2,2,0,0,1,23.28,74.82Z"/><path class="cls-1" d="M141.24,136.14V108.58a2,2,0,0,1,2-2h44l1-24.48h-39.4a2,2,0,0,1-2-2V53.38a2,2,0,0,1,2-2h76.08a2,2,0,0,1,2,2.07l-2,53.12H232a2,2,0,0,1,2,2v27.68a2,2,0,0,1-2,2l-88.8-.11A2,2,0,0,1,141.24,136.14Z"/><path class="cls-1" d="M248.4,106.14V69.22a2,2,0,0,1,2-2h104a2,2,0,0,1,2,2v36.92a2,2,0,0,1-2,2h-104A2,2,0,0,1,248.4,106.14Z"/><path class="cls-1" d="M373.76,137.09V37.78a2,2,0,0,1,2-2h41.48a2,2,0,0,1,2,2v19L468.85,76.4a2,2,0,0,1,1.26,1.86V120a2,2,0,0,1-2.69,1.88l-48.19-17.76v33a2,2,0,0,1-2,2H375.76A2,2,0,0,1,373.76,137.09Z"/><path class="cls-1" d="M529.76,95.18v-6.6L585.6,77.8a2,2,0,0,0,1.58-2.38L585,65a24.69,24.69,0,0,1-30.26-20.6l-24.94,4.24V37.78a2,2,0,0,0-2-2H487.48a2,2,0,0,0-2,2v74.44c0,19.32,14.16,29.28,56.64,29.28,19.5,0,34.44-.32,43.84-1.45a2,2,0,0,0,1.75-2V102.8a2,2,0,0,0-2-2h-40C533.72,100.82,529.76,98.78,529.76,95.18Z"/><path class="cls-1" d="M581.29,20.34a20.72,20.72,0,1,0,18.5,18.5A20.72,20.72,0,0,0,581.29,20.34Zm-.72,27.58a7.11,7.11,0,1,1,5.58-5.58A7.12,7.12,0,0,1,580.56,47.92Z"/><path class="cls-2" d="M618.19,95.67l17.59-77.39a2.32,2.32,0,0,1,2.87-1.73l34.95,9.36a2.32,2.32,0,0,1,1.62,2.93l-23.46,75.82a2.32,2.32,0,0,1-2.82,1.56l-29.08-7.79A2.32,2.32,0,0,1,618.19,95.67Z"/><circle class="cls-2" cx="624.75" cy="130.69" r="20.13" transform="translate(336.81 700.33) rotate(-75)"/></g></g></svg>