<svg xmlns="http://www.w3.org/2000/svg" width="28" height="24" viewBox="0 0 28 24">
  <defs>
    <style>
      .cls-1 {
        fill: #757575;
        fill-rule: evenodd;
      }
    </style>
  </defs>
  <path id="navicon_heart" class="cls-1" d="M63.182,453.011A7.929,7.929,0,0,0,57,455.906a7.929,7.929,0,0,0-6.182-2.895A7.658,7.658,0,0,0,43,460.481a7.265,7.265,0,0,0,2.18,5.172l11.026,10.59L57,477.005l0.794-.762,10.817-10.389A7.242,7.242,0,0,0,71,460.481,7.658,7.658,0,0,0,63.182,453.011Zm4.03,11.451L57,474.273l-10.4-9.987A5.319,5.319,0,0,1,45,460.5a5.672,5.672,0,0,1,5.818-5.5,5.887,5.887,0,0,1,4.618,2.152l1.564,1.7,1.564-1.7A5.888,5.888,0,0,1,63.178,455,5.672,5.672,0,0,1,69,460.5,5.318,5.318,0,0,1,67.212,464.462Z" transform="translate(-43 -453)"/>
</svg>
