<?xml version="1.0" standalone="no"?>
<!DOCTYPE svg PUBLIC "-//W3C//DTD SVG 20010904//EN"
 "http://www.w3.org/TR/2001/REC-SVG-20010904/DTD/svg10.dtd">
<svg version="1.0" xmlns="http://www.w3.org/2000/svg"
 width="500.000000pt" height="500.000000pt" viewBox="0 0 500.000000 500.000000"
 preserveAspectRatio="xMidYMid meet">
<metadata>
Created by potrace 1.11, written by Peter Selinger 2001-2013
</metadata>
<g transform="translate(0.000000,500.000000) scale(0.100000,-0.100000)"
fill="#000000" stroke="none">
<path d="M106 4838 c-2 -7 -9 -28 -15 -47 -38 -117 18 -257 143 -357 141 -113
409 -209 1026 -364 l115 -30 -96 6 c-53 3 -107 7 -120 9 -13 2 -62 9 -109 15
-134 18 -153 20 -180 26 -14 2 -38 7 -55 9 -169 28 -465 112 -584 166 -35 16
-67 29 -71 29 -4 0 -6 -19 -5 -42 9 -143 80 -239 227 -308 68 -32 187 -61 313
-76 28 -4 52 -8 55 -10 3 -1 44 -6 90 -9 47 -4 87 -9 90 -10 10 -6 264 -18
402 -19 163 -1 172 -6 38 -22 -30 -3 -57 -8 -60 -9 -3 -2 -37 -6 -75 -10 -39
-3 -77 -8 -85 -10 -36 -9 -238 -19 -390 -19 -177 0 -270 7 -353 29 -29 7 -54
12 -56 9 -11 -11 37 -89 79 -128 156 -146 405 -166 880 -70 14 3 39 7 55 10
17 3 78 16 138 28 59 12 104 19 100 15 -15 -15 -306 -136 -413 -172 -201 -68
-311 -91 -437 -91 -78 0 -80 -5 -24 -51 111 -91 277 -118 466 -76 113 24 209
62 405 159 85 42 160 79 165 81 18 7 -193 -147 -283 -208 -166 -111 -324 -190
-384 -192 -17 0 -10 -7 29 -25 77 -37 174 -44 268 -22 137 32 245 98 495 300
l65 53 -29 -40 c-146 -200 -367 -403 -441 -405 -17 -1 -16 -3 7 -15 38 -21
124 -24 188 -8 112 29 180 84 333 268 55 66 102 122 104 125 2 2 -1 -9 -7 -25
-34 -91 -152 -273 -228 -354 -29 -30 -49 -57 -46 -60 16 -17 105 1 167 33 38
19 67 32 65 28 -10 -23 -207 -419 -359 -724 -98 -197 -176 -358 -174 -358 3 0
145 45 316 100 172 55 313 99 315 97 2 -1 -49 -102 -112 -222 -131 -250 -221
-421 -304 -580 -32 -60 -124 -236 -205 -390 -81 -154 -174 -332 -208 -395 -33
-63 -79 -152 -103 -197 -46 -86 -56 -115 -27 -73 10 14 25 34 34 45 10 11 117
144 239 295 122 151 229 284 238 295 10 11 62 76 118 145 55 69 153 190 218
270 64 80 206 255 314 390 108 135 199 247 202 250 3 3 50 61 105 130 54 69
102 127 105 130 3 3 79 97 169 210 90 113 171 213 179 222 13 16 12 17 -19 7
-19 -5 -56 -16 -84 -24 -27 -8 -142 -41 -254 -75 -112 -33 -207 -59 -211 -58
-4 2 30 59 75 128 45 69 126 192 179 273 l96 148 38 -30 c66 -53 132 -75 215
-72 l29 1 -31 25 c-34 30 -118 134 -147 182 -17 31 -17 34 -1 50 16 16 19 15
49 -21 127 -155 284 -227 422 -193 47 11 70 27 41 27 -72 0 -297 208 -440 405
-20 26 -23 35 -10 24 11 -8 67 -54 125 -101 164 -134 256 -188 390 -232 59
-19 199 -18 259 2 54 18 93 42 71 43 -77 4 -182 54 -369 176 -111 72 -301 210
-301 218 0 2 46 -21 103 -50 205 -107 373 -171 522 -200 47 -9 181 -6 232 5
79 18 170 70 210 120 10 13 2 15 -60 15 -125 1 -231 23 -433 90 -101 34 -402
159 -417 174 -4 4 41 -3 100 -15 116 -25 125 -27 223 -43 36 -6 74 -13 85 -15
11 -2 42 -7 68 -10 27 -4 58 -9 69 -11 54 -11 172 -19 248 -17 206 4 354 69
432 191 38 60 37 72 -4 60 -105 -30 -422 -45 -603 -28 -99 9 -194 18 -260 24
-27 3 -59 7 -71 10 -11 2 -45 7 -75 11 -93 11 -73 19 49 20 115 0 338 10 417
19 22 2 65 7 95 10 30 3 66 8 80 10 14 2 42 7 63 10 92 13 117 18 191 36 154
39 255 109 305 212 29 59 48 161 33 171 -5 3 -28 -4 -52 -15 -109 -49 -372
-129 -500 -153 -14 -2 -36 -7 -50 -10 -27 -6 -52 -11 -150 -26 -104 -17 -112
-18 -174 -26 -88 -10 -113 -12 -206 -19 l-85 -6 195 51 c520 135 756 216 896
307 161 103 236 262 189 403 l-17 52 -32 -30 c-113 -108 -478 -272 -936 -421
-181 -58 -310 -99 -340 -106 -8 -2 -79 -22 -157 -44 -78 -21 -166 -44 -196
-51 l-55 -11 3 -77 c4 -102 -17 -199 -67 -301 -31 -66 -57 -101 -121 -166 -90
-90 -177 -140 -297 -172 -89 -23 -301 -23 -390 0 -181 47 -342 177 -418 337
-51 108 -66 172 -66 286 l0 91 -91 23 c-152 37 -559 156 -655 190 -14 5 -86
30 -160 55 -357 122 -658 263 -766 358 -30 26 -45 34 -48 25z m479 -322 c83
-35 241 -94 352 -132 111 -38 200 -70 199 -72 -4 -3 -38 7 -266 79 -258 81
-442 159 -546 230 -76 52 -54 57 29 8 45 -27 150 -78 232 -113z m4149 150
c-25 -66 -365 -213 -752 -326 -117 -34 -93 -18 36 24 271 88 619 237 692 296
30 24 31 24 24 6z m-859 -356 c-11 -5 -27 -9 -35 -9 -9 0 -8 4 5 9 11 5 27 9
35 9 9 0 8 -4 -5 -9z m-2668 -16 c-3 -3 -12 -4 -19 -1 -8 3 -5 6 6 6 11 1 17
-2 13 -5z m-805 -134 c91 -40 384 -104 638 -140 47 -7 94 -16 105 -21 l20 -9
-20 4 c-11 2 -49 7 -85 11 -36 4 -72 8 -81 10 -8 1 -42 6 -75 9 -32 4 -81 11
-109 16 -27 5 -66 12 -85 15 -132 22 -282 65 -337 97 -57 34 -39 39 29 8z
m4268 14 c0 -19 -189 -85 -315 -109 -94 -18 -245 -41 -335 -51 -25 -3 -69 -8
-97 -13 -29 -4 -53 -5 -53 -2 0 4 73 17 163 30 133 19 264 46 473 96 12 3 50
16 85 29 68 26 79 29 79 20z m-3452 -181 c-10 -2 -26 -2 -35 0 -10 3 -2 5 17
5 19 0 27 -2 18 -5z m2625 0 c-13 -2 -33 -2 -45 0 -13 2 -3 4 22 4 25 0 35 -2
23 -4z m-2546 -9 c-3 -3 -12 -4 -19 -1 -8 3 -5 6 6 6 11 1 17 -2 13 -5z m394
-172 c49 -124 141 -243 259 -335 l35 -27 -40 22 c-103 56 -198 151 -244 243
-41 84 -51 119 -56 205 -4 73 -4 74 5 22 6 -30 24 -88 41 -130z m1676 100
c-14 -180 -117 -331 -296 -437 -8 -5 23 29 70 76 50 49 103 113 127 154 43 74
92 206 92 249 0 14 3 26 6 26 4 0 4 -30 1 -68z m-2064 -169 c-7 -2 -19 -2 -25
0 -7 3 -2 5 12 5 14 0 19 -2 13 -5z m2424 1 c-3 -3 -12 -4 -19 -1 -8 3 -5 6 6
6 11 1 17 -2 13 -5z m158 -18 c33 -4 92 -10 130 -14 39 -4 152 -7 252 -7 126
0 176 -3 165 -10 -30 -18 -369 -11 -482 10 -14 3 -41 7 -60 9 -101 12 -141 19
-145 26 -2 4 14 4 38 0 23 -5 69 -11 102 -14z m-2660 4 c-38 -7 -78 -13 -185
-26 -25 -3 -72 -9 -105 -14 -81 -11 -336 -7 -357 5 -11 7 36 10 155 10 95 0
208 3 252 7 149 14 210 21 214 24 2 2 18 4 35 3 28 -1 27 -2 -9 -9z m271 -195
c-11 -8 -25 -15 -30 -15 -6 1 0 7 14 15 32 19 40 18 16 0z m2319 -115 c39 -16
61 -22 135 -41 41 -10 85 -19 98 -19 12 0 22 -4 22 -9 0 -12 -65 -6 -139 13
-87 23 -391 147 -391 159 0 3 141 -50 275 -103z m-2370 92 c-19 -17 -221 -101
-313 -131 -87 -29 -207 -48 -197 -31 2 4 27 10 55 14 67 9 242 65 360 115 102
43 109 45 95 33z m305 -95 c0 -2 -12 -14 -27 -28 l-28 -24 24 28 c23 25 31 32
31 24z m1551 -34 c13 -16 12 -17 -3 -4 -17 13 -22 21 -14 21 2 0 10 -8 17 -17z
m-1651 -53 c-109 -97 -259 -192 -322 -205 -20 -5 1 10 54 37 79 41 280 177
294 199 3 5 8 9 12 9 4 -1 -13 -19 -38 -40z m1760 -31 c12 -15 179 -119 227
-140 52 -24 75 -47 29 -29 -84 31 -219 120 -306 201 l-45 41 45 -33 c25 -18
47 -36 50 -40z m-1480 -23 c0 -2 -8 -10 -17 -17 -16 -13 -17 -12 -4 4 13 16
21 21 21 13z m1316 -178 c27 -25 60 -56 74 -67 14 -11 21 -20 16 -21 -18 0
-98 74 -166 155 -39 45 -70 86 -70 89 0 4 22 -19 48 -51 27 -32 71 -79 98
-105z m-1358 122 c-7 -10 -14 -17 -17 -15 -4 4 18 35 25 35 2 0 -1 -9 -8 -20z
m-28 -30 c0 -13 -165 -180 -178 -180 -6 0 31 42 81 93 106 108 97 100 97 87z"/>
</g>
</svg>
